<?xml version="1.0" encoding="UTF-8" standalone="no"?>
<!-- Created with Inkscape (http://www.inkscape.org/) -->

<svg
   xmlns:dc="http://purl.org/dc/elements/1.1/"
   xmlns:cc="http://creativecommons.org/ns#"
   xmlns:rdf="http://www.w3.org/1999/02/22-rdf-syntax-ns#"
   xmlns:svg="http://www.w3.org/2000/svg"
   xmlns="http://www.w3.org/2000/svg"
   xmlns:xlink="http://www.w3.org/1999/xlink"
   xmlns:sodipodi="http://sodipodi.sourceforge.net/DTD/sodipodi-0.dtd"
   xmlns:inkscape="http://www.inkscape.org/namespaces/inkscape"
   preserveAspectRatio="xMinYMin meet"
   viewBox="0 0 293 242"
   id="svg2"
   version="1.1"
   inkscape:version="0.48.4 r9939"
   sodipodi:docname="500.svg">
  <defs
     id="defs4">
    <linearGradient
       id="linearGradient4243"
       inkscape:collect="always">
      <stop
         id="stop4245"
         offset="0"
         style="stop-color:#000000;stop-opacity:1;" />
      <stop
         id="stop4247"
         offset="1"
         style="stop-color:#000000;stop-opacity:0;" />
    </linearGradient>
    <linearGradient
       id="linearGradient4254"
       inkscape:collect="always">
      <stop
         id="stop4256"
         offset="0"
         style="stop-color:#000000;stop-opacity:1;" />
      <stop
         id="stop4258"
         offset="1"
         style="stop-color:#000000;stop-opacity:0;" />
    </linearGradient>
    <linearGradient
       inkscape:collect="always"
       xlink:href="#linearGradient4243"
       id="linearGradient3947"
       gradientUnits="userSpaceOnUse"
       gradientTransform="translate(724.54211,434.88849)"
       x1="-387.88867"
       y1="-105.96735"
       x2="-379.22232"
       y2="-94.536995" />
    <linearGradient
       inkscape:collect="always"
       xlink:href="#linearGradient4254"
       id="linearGradient3949"
       gradientUnits="userSpaceOnUse"
       gradientTransform="translate(720.00161,434.34363)"
       x1="-260.18835"
       y1="-90.253418"
       x2="-258.39041"
       y2="-77.154099" />
    <linearGradient
       inkscape:collect="always"
       xlink:href="#linearGradient4254"
       id="linearGradient3985"
       gradientUnits="userSpaceOnUse"
       gradientTransform="translate(-281.85625,-398.65254)"
       x1="-260.18835"
       y1="-90.253418"
       x2="-258.39041"
       y2="-77.154099" />
    <linearGradient
       inkscape:collect="always"
       xlink:href="#linearGradient4243"
       id="linearGradient4006"
       gradientUnits="userSpaceOnUse"
       gradientTransform="translate(-277.31575,-398.10768)"
       x1="-387.88867"
       y1="-105.96735"
       x2="-379.22232"
       y2="-94.536995" />
    <linearGradient
       inkscape:collect="always"
       xlink:href="#linearGradient4243"
       id="linearGradient4078"
       gradientUnits="userSpaceOnUse"
       gradientTransform="translate(-277.31575,-398.10768)"
       x1="-387.88867"
       y1="-105.96735"
       x2="-379.22232"
       y2="-94.536995" />
    <linearGradient
       inkscape:collect="always"
       xlink:href="#linearGradient4254"
       id="linearGradient4080"
       gradientUnits="userSpaceOnUse"
       gradientTransform="translate(-281.85625,-398.65254)"
       x1="-260.18835"
       y1="-90.253418"
       x2="-258.39041"
       y2="-77.154099" />
    <linearGradient
       inkscape:collect="always"
       xlink:href="#linearGradient4254"
       id="linearGradient4087"
       gradientUnits="userSpaceOnUse"
       gradientTransform="translate(-281.85625,-398.65254)"
       x1="-260.18835"
       y1="-90.253418"
       x2="-258.39041"
       y2="-77.154099" />
    <linearGradient
       inkscape:collect="always"
       xlink:href="#linearGradient4243"
       id="linearGradient4104"
       gradientUnits="userSpaceOnUse"
       gradientTransform="translate(-277.31575,-398.10768)"
       x1="-387.88867"
       y1="-105.96735"
       x2="-379.22232"
       y2="-94.536995" />
    <linearGradient
       inkscape:collect="always"
       xlink:href="#linearGradient4243"
       id="linearGradient3829"
       gradientUnits="userSpaceOnUse"
       gradientTransform="translate(724.54211,434.88849)"
       x1="-387.88867"
       y1="-105.96735"
       x2="-379.22232"
       y2="-94.536995" />
    <linearGradient
       inkscape:collect="always"
       xlink:href="#linearGradient4254"
       id="linearGradient3831"
       gradientUnits="userSpaceOnUse"
       gradientTransform="translate(720.00161,434.34363)"
       x1="-260.18835"
       y1="-90.253418"
       x2="-258.39041"
       y2="-77.154099" />
  </defs>
  <sodipodi:namedview
     id="base"
     pagecolor="#ffffff"
     bordercolor="#666666"
     borderopacity="1.0"
     inkscape:pageopacity="0.0"
     inkscape:pageshadow="2"
     inkscape:zoom="1"
     inkscape:cx="142.35317"
     inkscape:cy="164.33672"
     inkscape:document-units="px"
     inkscape:current-layer="layer1"
     showgrid="false"
     showguides="true"
     inkscape:guide-bbox="true"
     inkscape:object-paths="true"
     inkscape:snap-intersection-paths="true"
     inkscape:object-nodes="true"
     inkscape:snap-smooth-nodes="true"
     inkscape:window-width="1615"
     inkscape:window-height="1026"
     inkscape:window-x="1745"
     inkscape:window-y="24"
     inkscape:window-maximized="1"
     fit-margin-top="0"
     fit-margin-left="0"
     fit-margin-right="0"
     fit-margin-bottom="0">
    <sodipodi:guide
       orientation="0,1"
       position="59.490743,95.423477"
       id="guide3792" />
    <sodipodi:guide
       orientation="1,0"
       position="59.490743,101.52853"
       id="guide3797" />
  </sodipodi:namedview>
  <metadata
     id="metadata7">
    <rdf:RDF>
      <cc:Work
         rdf:about="">
        <dc:format>image/svg+xml</dc:format>
        <dc:type
           rdf:resource="http://purl.org/dc/dcmitype/StillImage" />
        <dc:title></dc:title>
      </cc:Work>
    </rdf:RDF>
  </metadata>
  <g
     inkscape:label="Layer 1"
     inkscape:groupmode="layer"
     id="layer1"
     transform="translate(-224.46111,-124.03125)">
    <text
       xml:space="preserve"
       style="font-size:40px;font-style:normal;font-weight:normal;line-height:125%;letter-spacing:0px;word-spacing:0px;fill:#000000;fill-opacity:1;stroke:none;font-family:Sans"
       x="-603.50507"
       y="-448.32944"
       id="text3799"
       sodipodi:linespacing="125%"><tspan
         y="-448.32944"
         x="-603.50507"
         sodipodi:role="line"
         id="tspan3801" /></text>
    <text
       xml:space="preserve"
       style="font-size:50px;font-style:normal;font-weight:normal;line-height:125%;letter-spacing:0px;word-spacing:0px;fill:#000000;fill-opacity:1;stroke:none;font-family:Sans"
       x="-611.73358"
       y="-441.87137"
       id="text3811"
       sodipodi:linespacing="125%"><tspan
         y="-441.87137"
         x="-611.73358"
         sodipodi:role="line"
         id="tspan3813" /></text>
    <g
       id="g3807">
      <path
         style="fill:url(#linearGradient3829);fill-opacity:1;stroke:none"
         d="m 355.6647,314.75704 69.66663,8.08262 -30.05138,32.61986 -78.0436,-12.07191 z"
         id="path3907"
         inkscape:connector-curvature="0"
         sodipodi:nodetypes="ccccc" />
      <path
         style="fill:#313131;fill-opacity:1;stroke:#000000;stroke-opacity:1"
         d="m 272.96981,212.6372 c -15.12193,9.19918 -53.97286,25.62158 -44.78388,27.23709 l 85.54431,15.03946 c 15.47827,-8.8837 27.58303,-19.9369 38.6376,-29.13659 -23.78542,-5.16005 -43.54882,-10.51965 -79.39803,-13.13996 z"
         id="path3909"
         inkscape:connector-curvature="0"
         sodipodi:nodetypes="csccc"
         inkscape:export-xdpi="90"
         inkscape:export-ydpi="90" />
      <path
         style="fill:#000000;fill-opacity:1;stroke:#000000;stroke-width:1.47186816px;stroke-linecap:butt;stroke-linejoin:miter;stroke-opacity:1"
         d="m 307.96464,343.38752 c -6.28364,2.36491 18.10741,-0.73453 12.77673,-1.3278 0,0 -2.81355,-7.64111 -5.82639,-7.62744 -3.55587,0.0162 -6.95034,8.95524 -6.95034,8.95524 z"
         id="path3911"
         inkscape:connector-curvature="0"
         sodipodi:nodetypes="scss"
         inkscape:export-xdpi="90"
         inkscape:export-ydpi="90" />
      <path
         style="fill:#000000;fill-opacity:1;stroke:#000000;stroke-width:1.47186816px;stroke-linecap:butt;stroke-linejoin:miter;stroke-opacity:1"
         d="m 316.44537,335.88097 c 0.55139,3.48114 2.83053,8.5784 6.04877,6.04877 5.95315,-4.67933 27.44622,-18.4034 35.27481,-25.57646 1.32008,-1.20952 2.76641,-4.02234 2.39332,-5.98528 l 0.32574,-89.41374 -45.93287,34.02435 z"
         id="path3913"
         inkscape:connector-curvature="0"
         sodipodi:nodetypes="csscccc"
         inkscape:export-xdpi="90"
         inkscape:export-ydpi="90" />
      <ellipse
         style="fill:#1a1a1a;fill-opacity:1;stroke:#000000;stroke-width:1;stroke-miterlimit:4;stroke-opacity:1;stroke-dasharray:none"
         id="ellipse3915"
         inkscape:export-xdpi="90"
         inkscape:export-ydpi="90"
         cx="-268.83606"
         cy="-214.41833"
         rx="13.621492"
         ry="9.8074741"
         sodipodi:cx="-268.83606"
         sodipodi:cy="-214.41833"
         sodipodi:rx="13.621492"
         sodipodi:ry="9.8074741"
         d="m -255.21457,-214.41833 c 0,5.41651 -6.09855,9.80747 -13.62149,9.80747 -7.52294,0 -13.62149,-4.39096 -13.62149,-9.80747 0,-5.41652 6.09855,-9.80748 13.62149,-9.80748 7.52294,0 13.62149,4.39096 13.62149,9.80748 z"
         transform="matrix(1.4718682,0,0,1.4718682,825.55407,581.32644)" />
      <path
         style="fill:#0e0e0e;fill-opacity:1;stroke:#000000;stroke-opacity:1"
         d="m 508.49392,253.46641 c 12.74821,-4.01809 -59.70773,-33.69459 -60.10968,-33.6463 -7.75732,0.93225 -72.96333,19.65852 -72.96333,19.65852 l 40.45117,22.77463 c 24.39291,13.73358 79.33449,-4.59881 92.62184,-8.78685 z"
         id="path3917"
         inkscape:connector-curvature="0"
         sodipodi:nodetypes="sscss"
         inkscape:export-xdpi="90"
         inkscape:export-ydpi="90" />
      <path
         style="fill:#0c0c0c;fill-opacity:1;stroke:#000000;stroke-opacity:1"
         d="m 424.53261,360.14249 c 3.00064,1.15866 8.85085,1.3132 12.56406,0 l -8.28693,-9.55828 z"
         id="path3919"
         inkscape:connector-curvature="0"
         sodipodi:nodetypes="cccc"
         inkscape:export-xdpi="90"
         inkscape:export-ydpi="90" />
      <path
         style="fill:#151515;fill-opacity:1;stroke:#000000;stroke-opacity:1"
         d="m 373.71969,239.28962 0.37805,88.08526 c 1.26572,4.88991 3.65354,9.03176 7.93902,11.90852 0,0 28.44789,15.12986 41.39628,20.79267 2.81869,1.2327 7.43126,-8.09562 7.43126,-8.09562 4.29138,-27.51001 1.0293,-53.94388 -1.76052,-80.74576 l -10.58535,-8.31706 c -13.73456,-7.87601 -29.79939,-15.75202 -44.79874,-23.62801 z"
         id="path3921"
         inkscape:connector-curvature="0"
         sodipodi:nodetypes="cccscccc"
         inkscape:export-xdpi="90"
         inkscape:export-ydpi="90" />
      <path
         style="fill:#1a1a1a;fill-opacity:1;stroke:#000000;stroke-opacity:1"
         d="m 311.97445,147.30789 82.58126,5.14526 c 2.15935,0.13452 3.26818,2.91401 3.29876,5.0119 l 1.26647,86.88021 c 0.0387,2.65528 -0.57373,6.72233 -4.27713,6.41568 -27.97954,-2.31677 -83.93864,-6.95032 -83.93864,-6.95032 -6.55012,-0.54237 -9.87044,-2.03921 -9.89087,-8.28694 l -0.26732,-81.80009 c -0.0268,-8.18789 7.26275,-6.66272 11.22747,-6.4157 z"
         id="path3923"
         inkscape:connector-curvature="0"
         sodipodi:nodetypes="sssssssss"
         inkscape:export-xdpi="90"
         inkscape:export-ydpi="90" />
      <path
         style="fill:#2a2a2a;fill-opacity:1;stroke:#000000;stroke-opacity:1"
         d="m 302.19493,148.98148 c 0,0 3.43726,-5.82598 5.17728,-7.22835 9.45963,-7.62393 32.13411,-17.20119 32.13411,-17.20119 l 86.37241,6.5803 -28.15297,23.66356 c 0,0 -60.60568,-5.08071 -90.90853,-7.62107 -1.26419,-0.10597 -4.6223,1.80675 -4.6223,1.80675 z"
         id="path3925"
         inkscape:connector-curvature="0"
         sodipodi:nodetypes="cscccsc"
         inkscape:export-xdpi="90"
         inkscape:export-ydpi="90" />
      <path
         style="fill:#000000;fill-opacity:1;stroke:#000000;stroke-opacity:1"
         d="m 396.71506,154.52555 c 0.17487,0.102 24.08105,-21.13401 28.6033,-23.25689 2.13104,-1.00038 3.37085,3.79651 3.47516,6.14838 1.36669,30.81349 -0.0468,87.96762 -0.0649,88.13748 -0.0577,0.54208 -1.54093,1.88651 -2.171,2.51662 -8.39343,8.39392 -21.33202,18.69799 -25.56548,22.15516 -1.11286,0.90881 -2.05765,-2.30796 -2.13856,-3.74249 -1.69442,-30.04187 0.16212,-92.13524 -2.13857,-91.95826 z"
         id="path3927"
         inkscape:connector-curvature="0"
         sodipodi:nodetypes="csssssscc"
         inkscape:export-xdpi="90"
         inkscape:export-ydpi="90" />
      <path
         style="fill:#1f1f1f;fill-opacity:1;stroke:#000000;stroke-opacity:1"
         d="m 226.76208,238.96692 -1.8044,84.43845 c -0.10686,5.00264 0.77131,9.64965 13.60974,11.7195 0.74732,0.12054 52.56186,10.19323 68.80479,9.82925 4.66313,-0.1045 8.59627,-6.30015 8.69512,-10.9634 0.54427,-25.6798 -1.41412,-76.46723 -1.33267,-77.65257 0.15771,-2.29507 -5.60524,-3.55796 -13.69754,-4.79997 z"
         id="path3929"
         inkscape:connector-curvature="0"
         sodipodi:nodetypes="cssssssc"
         inkscape:export-xdpi="90"
         inkscape:export-ydpi="90" />
      <path
         style="fill:#000000;fill-opacity:1;stroke:#000000;stroke-opacity:1"
         d="m 429.67085,351.38095 c 0.22291,3.67515 -0.27565,8.72376 8.12804,8.6951 1.02059,-0.003 67.1994,-15.81098 67.67065,-16.25608 2.06327,-1.94876 5.00438,-3.71418 5.00438,-8.02091 0,-24.01525 -0.1707,-82.74664 -0.0898,-83.46678 0.28339,-2.52149 -80.15743,15.13563 -80.31629,19.62607 -0.93322,26.37964 -0.6053,75.98864 -0.39703,79.4226 z"
         id="path3931"
         inkscape:connector-curvature="0"
         sodipodi:nodetypes="sssssss"
         inkscape:export-xdpi="90"
         inkscape:export-ydpi="90" />
      <g
         style="font-size:50px;font-style:normal;font-weight:normal;line-height:125%;letter-spacing:0px;word-spacing:0px;fill:#ffffff;fill-opacity:1;stroke:#000000;stroke-opacity:1;font-family:Sans"
         id="g3933"
         inkscape:export-xdpi="90"
         inkscape:export-ydpi="90"
         transform="matrix(1.4718682,0,0,1.4718682,754.98145,368.53929)">
        <path
           d="m -275.24097,-132.09901 c -2.53906,0 -4.45149,-0.0181 -5.7373,2.48843 -1.26953,2.49023 -1.9043,6.24186 -1.9043,11.25488 0,4.99675 0.63477,8.74837 1.9043,11.25488 1.28581,2.49024 3.19824,5.0067 5.7373,5.0067 2.55534,0 4.28616,-0.1554 5.55569,-2.64564 1.28581,-2.50651 1.92871,-6.25813 1.92871,-11.25488 0,-5.01302 -0.6429,-8.76465 -1.92871,-11.25488 -1.26953,-2.50651 -3.00035,-4.84949 -5.55569,-4.84949 z m 0,-3.90625 c 4.08529,0 7.02053,2.70919 9.16897,5.94812 2.16471,3.22266 3.24707,7.91016 3.24707,14.0625 0,6.13607 -1.08236,10.82357 -3.24707,14.0625 -2.14844,3.222657 -5.08368,3.744266 -9.16897,3.744266 -4.08529,0 -7.21029,-2.882666 -9.375,-6.105326 -2.14843,-3.23893 -3.22265,-7.92643 -3.22265,-14.0625 0,-6.15234 1.07422,-10.83984 3.22265,-14.0625 2.16471,-3.23893 5.28971,-3.58706 9.375,-3.58706 z"
           id="path3935"
           inkscape:connector-curvature="0"
           sodipodi:nodetypes="scscscscsscscscscs"
           style="stroke:#000000;stroke-opacity:1" />
      </g>
      <path
         style="fill:url(#linearGradient3831);fill-opacity:1;stroke:none"
         d="m 427.02326,360.51296 77.67206,-21.02797 13.25825,5.65181 -77.67206,21.02797 z"
         id="path3945"
         inkscape:connector-curvature="0"
         sodipodi:nodetypes="ccccc" />
      <g
         id="text3020"
         style="font-size:73.547966px;font-style:normal;font-weight:normal;line-height:125%;letter-spacing:0px;word-spacing:0px;fill:#ffffff;fill-opacity:1;stroke:#000000;stroke-opacity:1;font-family:Sans">
        <path
           sodipodi:nodetypes="cccccsscccscccsssccsscc"
           inkscape:connector-curvature="0"
           id="path3795"
           d="m 255.25627,265.92305 28.69558,4.81824 0,6.10505 -23.80184,-4.81824 0.21729,12.34316 c 1.0534,-0.35909 4.15321,-0.85379 5.21962,-0.87846 1.0552,-0.0244 2.4374,0.0691 3.51382,0.28723 5.45652,1.10576 7.14598,1.90518 10.64145,5.18512 3.49541,3.28 5.24313,7.72112 5.24317,13.32339 -4e-5,5.76989 -1.79564,8.40273 -5.38681,11.61087 -3.59124,3.18421 -5.73803,3.27371 -12.274,3.27371 -2.25051,0 -4.54888,-0.89864 -6.89512,-1.2817 -2.32233,-0.38306 -4.72844,-2.10671 -7.21833,-2.87283 l 0,-7.29016 c 2.15472,1.17314 4.38126,3.19605 6.67965,3.77064 2.29836,0.57459 4.72841,1.569 7.29015,1.569 4.14184,0 4.50499,0.41327 6.9231,-1.7654 2.41804,-2.17866 3.62708,-3.27926 3.62712,-7.01413 -4e-5,-3.73484 -1.20908,-6.6916 -3.62712,-8.87029 -2.41811,-2.17864 -3.86693,-3.0673 -7.49762,-3.88673 -1.89169,-0.42694 -3.62415,-0.18793 -5.24324,0.0277 -1.94602,0.25918 -3.87851,1.10133 -5.88958,2.01108 l -0.21729,-25.64726" />
      </g>
      <g
         id="text3800"
         style="font-size:71.94972992px;font-style:normal;font-weight:normal;line-height:125%;letter-spacing:0px;word-spacing:0px;fill:#ffffff;fill-opacity:1;stroke:#000000;stroke-width:1.4560591;stroke-opacity:1;font-family:Sans">
        <path
           sodipodi:nodetypes="ccscscsccccscscscc"
           inkscape:connector-curvature="0"
           id="path3805"
           d="m 468.33238,284.40613 c -2.70355,1.23749 -4.7807,4.14056 -6.63095,7.74737 -1.82686,3.58348 -2.74029,9.23204 -2.74027,16.44572 -2e-5,7.19031 0.91341,11.71387 2.74027,15.32071 1.85025,3.58345 4.60223,3.75016 8.25595,3.75016 3.67709,0 5.67907,-3.54171 7.50595,-7.12516 1.85024,-3.60684 1.90037,-7.2554 1.9004,-14.44571 -3e-5,-7.21368 -0.92516,-13.36224 -2.7754,-16.94572 -1.82688,-3.60681 -4.57886,-4.74732 -8.25595,-4.74737 m 1.625,-5.53398 c 5.87868,5e-5 8.73882,1.58045 11.83044,6.24121 3.11497,4.63742 4.67248,12.1327 4.67252,20.98586 -4e-5,8.82978 -0.68255,13.82507 -3.79752,18.48586 -3.09162,4.63739 -6.82676,8.70608 -12.70544,8.70608 -5.87872,0 -10.37558,-0.69369 -13.49058,-5.33108 -3.09159,-4.66079 -4.63739,-10.53108 -4.63738,-19.36086 -1e-5,-8.85316 1.54579,-15.84844 4.63738,-20.48586 3.115,-4.66076 7.61186,-9.24116 13.49058,-9.24121" />
      </g>
    </g>
  </g>
</svg>
