<?xml version="1.0" encoding="UTF-8" standalone="no"?>
<!-- Created with Inkscape (http://www.inkscape.org/) -->

<svg
   xmlns:dc="http://purl.org/dc/elements/1.1/"
   xmlns:cc="http://creativecommons.org/ns#"
   xmlns:rdf="http://www.w3.org/1999/02/22-rdf-syntax-ns#"
   xmlns:svg="http://www.w3.org/2000/svg"
   xmlns="http://www.w3.org/2000/svg"
   xmlns:xlink="http://www.w3.org/1999/xlink"
   xmlns:sodipodi="http://sodipodi.sourceforge.net/DTD/sodipodi-0.dtd"
   xmlns:inkscape="http://www.inkscape.org/namespaces/inkscape"
   preserveAspectRatio="xMinYMin meet"
   viewBox="0 0 293 242"
   id="svg2"
   version="1.1"
   inkscape:version="0.48.4 r9939"
   sodipodi:docname="422.svg">
  <defs
     id="defs4">
    <linearGradient
       id="linearGradient4243"
       inkscape:collect="always">
      <stop
         id="stop4245"
         offset="0"
         style="stop-color:#000000;stop-opacity:1;" />
      <stop
         id="stop4247"
         offset="1"
         style="stop-color:#000000;stop-opacity:0;" />
    </linearGradient>
    <linearGradient
       id="linearGradient4254"
       inkscape:collect="always">
      <stop
         id="stop4256"
         offset="0"
         style="stop-color:#000000;stop-opacity:1;" />
      <stop
         id="stop4258"
         offset="1"
         style="stop-color:#000000;stop-opacity:0;" />
    </linearGradient>
    <linearGradient
       inkscape:collect="always"
       xlink:href="#linearGradient4243"
       id="linearGradient3947"
       gradientUnits="userSpaceOnUse"
       gradientTransform="translate(-291.45789,516.88849)"
       x1="-387.88867"
       y1="-105.96735"
       x2="-379.22232"
       y2="-94.536995" />
    <linearGradient
       inkscape:collect="always"
       xlink:href="#linearGradient4254"
       id="linearGradient3949"
       gradientUnits="userSpaceOnUse"
       gradientTransform="translate(-295.99839,516.34363)"
       x1="-260.18835"
       y1="-90.253418"
       x2="-258.39041"
       y2="-77.154099" />
    <linearGradient
       inkscape:collect="always"
       xlink:href="#linearGradient4254"
       id="linearGradient3985"
       gradientUnits="userSpaceOnUse"
       gradientTransform="translate(-281.85625,-398.65254)"
       x1="-260.18835"
       y1="-90.253418"
       x2="-258.39041"
       y2="-77.154099" />
    <linearGradient
       inkscape:collect="always"
       xlink:href="#linearGradient4243"
       id="linearGradient4006"
       gradientUnits="userSpaceOnUse"
       gradientTransform="translate(-277.31575,-398.10768)"
       x1="-387.88867"
       y1="-105.96735"
       x2="-379.22232"
       y2="-94.536995" />
    <linearGradient
       inkscape:collect="always"
       xlink:href="#linearGradient4243"
       id="linearGradient4078"
       gradientUnits="userSpaceOnUse"
       gradientTransform="translate(-277.31575,-398.10768)"
       x1="-387.88867"
       y1="-105.96735"
       x2="-379.22232"
       y2="-94.536995" />
    <linearGradient
       inkscape:collect="always"
       xlink:href="#linearGradient4254"
       id="linearGradient4080"
       gradientUnits="userSpaceOnUse"
       gradientTransform="translate(-281.85625,-398.65254)"
       x1="-260.18835"
       y1="-90.253418"
       x2="-258.39041"
       y2="-77.154099" />
    <linearGradient
       inkscape:collect="always"
       xlink:href="#linearGradient4254"
       id="linearGradient4087"
       gradientUnits="userSpaceOnUse"
       gradientTransform="translate(718.14375,415.34746)"
       x1="-260.18835"
       y1="-90.253418"
       x2="-258.39041"
       y2="-77.154099" />
    <linearGradient
       inkscape:collect="always"
       xlink:href="#linearGradient4243"
       id="linearGradient4104"
       gradientUnits="userSpaceOnUse"
       gradientTransform="translate(722.68425,415.89232)"
       x1="-387.88867"
       y1="-105.96735"
       x2="-379.22232"
       y2="-94.536995" />
    <linearGradient
       inkscape:collect="always"
       xlink:href="#linearGradient4243"
       id="linearGradient3387"
       gradientUnits="userSpaceOnUse"
       gradientTransform="translate(722.68425,415.89232)"
       x1="-387.88867"
       y1="-105.96735"
       x2="-379.22232"
       y2="-94.536995" />
    <linearGradient
       inkscape:collect="always"
       xlink:href="#linearGradient4254"
       id="linearGradient3389"
       gradientUnits="userSpaceOnUse"
       gradientTransform="translate(718.14375,415.34746)"
       x1="-260.18835"
       y1="-90.253418"
       x2="-258.39041"
       y2="-77.154099" />
  </defs>
  <sodipodi:namedview
     id="base"
     pagecolor="#ffffff"
     bordercolor="#666666"
     borderopacity="1.0"
     inkscape:pageopacity="0.0"
     inkscape:pageshadow="2"
     inkscape:zoom="0.5"
     inkscape:cx="-515.49466"
     inkscape:cy="435.77112"
     inkscape:document-units="px"
     inkscape:current-layer="layer1"
     showgrid="false"
     showguides="true"
     inkscape:guide-bbox="true"
     inkscape:object-paths="true"
     inkscape:snap-intersection-paths="true"
     inkscape:object-nodes="true"
     inkscape:snap-smooth-nodes="true"
     inkscape:window-width="1615"
     inkscape:window-height="1026"
     inkscape:window-x="1745"
     inkscape:window-y="24"
     inkscape:window-maximized="1"
     fit-margin-top="0"
     fit-margin-left="0"
     fit-margin-right="0"
     fit-margin-bottom="0" />
  <metadata
     id="metadata7">
    <rdf:RDF>
      <cc:Work
         rdf:about="">
        <dc:format>image/svg+xml</dc:format>
        <dc:type
           rdf:resource="http://purl.org/dc/dcmitype/StillImage" />
        <dc:title />
      </cc:Work>
    </rdf:RDF>
  </metadata>
  <g
     inkscape:label="Layer 1"
     inkscape:groupmode="layer"
     id="layer1"
     transform="translate(-222.58674,-105.0625)">
    <text
       xml:space="preserve"
       style="font-size:40px;font-style:normal;font-weight:normal;line-height:125%;letter-spacing:0px;word-spacing:0px;fill:#000000;fill-opacity:1;stroke:none;font-family:Sans"
       x="-603.50507"
       y="-448.32944"
       id="text3799"
       sodipodi:linespacing="125%"><tspan
         y="-448.32944"
         x="-603.50507"
         sodipodi:role="line"
         id="tspan3801" /></text>
    <text
       xml:space="preserve"
       style="font-size:50px;font-style:normal;font-weight:normal;line-height:125%;letter-spacing:0px;word-spacing:0px;fill:#000000;fill-opacity:1;stroke:none;font-family:Sans"
       x="-611.73358"
       y="-441.87137"
       id="text3811"
       sodipodi:linespacing="125%"><tspan
         y="-441.87137"
         x="-611.73358"
         sodipodi:role="line"
         id="tspan3813" /></text>
    <g
       id="g3365">
      <path
         inkscape:export-ydpi="90"
         inkscape:export-xdpi="90"
         inkscape:export-filename="/home/snieezy/Documents/gr3-bkup/v1.png"
         sodipodi:nodetypes="ccccc"
         inkscape:connector-curvature="0"
         id="rect4230"
         d="m 353.80684,295.76087 69.66663,8.08262 -30.05138,32.61986 -78.0436,-12.07191 z"
         style="fill:url(#linearGradient3387);fill-opacity:1;stroke:none" />
      <path
         inkscape:export-filename="/home/snieezy/Documents/gr3-bkup/v1.png"
         inkscape:export-ydpi="90"
         inkscape:export-xdpi="90"
         sodipodi:nodetypes="csccc"
         inkscape:connector-curvature="0"
         id="path3781"
         d="m 271.11195,193.64103 c -15.12193,9.19918 -53.97286,25.62158 -44.78388,27.23709 l 85.54431,15.03946 c 15.47827,-8.8837 27.58303,-19.9369 38.6376,-29.13659 -23.78542,-5.16005 -43.54882,-10.51965 -79.39803,-13.13996 z"
         style="fill:#313131;fill-opacity:1;stroke:#000000;stroke-opacity:1" />
      <path
         inkscape:export-filename="/home/snieezy/Documents/gr3-bkup/v1.png"
         inkscape:export-ydpi="90"
         inkscape:export-xdpi="90"
         sodipodi:nodetypes="scss"
         inkscape:connector-curvature="0"
         id="path3787"
         d="m 306.10678,324.39135 c -6.28364,2.36491 18.10741,-0.73453 12.77673,-1.3278 0,0 -2.81355,-7.64111 -5.82639,-7.62744 -3.55587,0.0162 -6.95034,8.95524 -6.95034,8.95524 z"
         style="fill:#000000;fill-opacity:1;stroke:#000000;stroke-width:1.47186816px;stroke-linecap:butt;stroke-linejoin:miter;stroke-opacity:1" />
      <path
         inkscape:export-filename="/home/snieezy/Documents/gr3-bkup/v1.png"
         inkscape:export-ydpi="90"
         inkscape:export-xdpi="90"
         sodipodi:nodetypes="csscccc"
         inkscape:connector-curvature="0"
         id="path3785"
         d="m 314.58751,316.8848 c 0.55139,3.48114 2.83053,8.5784 6.04877,6.04877 5.95315,-4.67933 27.44622,-18.4034 35.27481,-25.57646 1.32008,-1.20952 2.76641,-4.02234 2.39332,-5.98528 l 0.32574,-89.41374 -45.93287,34.02435 z"
         style="fill:#000000;fill-opacity:1;stroke:#000000;stroke-width:1.47186816px;stroke-linecap:butt;stroke-linejoin:miter;stroke-opacity:1" />
      <ellipse
         inkscape:export-filename="/home/snieezy/Documents/gr3-bkup/v1.png"
         transform="matrix(1.4718682,0,0,1.4718682,823.69621,562.33027)"
         d="m -255.21457,-214.41833 c 0,5.41651 -6.09855,9.80747 -13.62149,9.80747 -7.52294,0 -13.62149,-4.39096 -13.62149,-9.80747 0,-5.41652 6.09855,-9.80748 13.62149,-9.80748 7.52294,0 13.62149,4.39096 13.62149,9.80748 z"
         sodipodi:ry="9.8074741"
         sodipodi:rx="13.621492"
         sodipodi:cy="-214.41833"
         sodipodi:cx="-268.83606"
         ry="9.8074741"
         rx="13.621492"
         cy="-214.41833"
         cx="-268.83606"
         inkscape:export-ydpi="90"
         inkscape:export-xdpi="90"
         id="path3795"
         style="fill:#1a1a1a;fill-opacity:1;stroke:#000000;stroke-width:1;stroke-miterlimit:4;stroke-opacity:1;stroke-dasharray:none" />
      <path
         inkscape:export-filename="/home/snieezy/Documents/gr3-bkup/v1.png"
         inkscape:export-ydpi="90"
         inkscape:export-xdpi="90"
         sodipodi:nodetypes="sscss"
         inkscape:connector-curvature="0"
         id="path3793"
         d="m 506.63606,234.47024 c 12.74821,-4.01809 -59.70773,-33.69459 -60.10968,-33.6463 -7.75732,0.93225 -72.96333,19.65852 -72.96333,19.65852 l 40.45117,22.77463 c 24.39291,13.73358 79.33449,-4.59881 92.62184,-8.78685 z"
         style="fill:#0e0e0e;fill-opacity:1;stroke:#000000;stroke-opacity:1" />
      <path
         inkscape:export-filename="/home/snieezy/Documents/gr3-bkup/v1.png"
         inkscape:export-ydpi="90"
         inkscape:export-xdpi="90"
         sodipodi:nodetypes="cccc"
         inkscape:connector-curvature="0"
         id="path3797"
         d="m 422.67475,341.14632 c 3.00064,1.15866 8.85085,1.3132 12.56406,0 l -8.28693,-9.55828 z"
         style="fill:#0c0c0c;fill-opacity:1;stroke:#000000;stroke-opacity:1" />
      <path
         inkscape:export-filename="/home/snieezy/Documents/gr3-bkup/v1.png"
         inkscape:export-ydpi="90"
         inkscape:export-xdpi="90"
         sodipodi:nodetypes="cccscccc"
         inkscape:connector-curvature="0"
         id="path3789"
         d="m 371.86183,220.29345 0.37805,88.08526 c 1.26572,4.88991 3.65354,9.03176 7.93902,11.90852 0,0 28.44789,15.12986 41.39628,20.79267 2.81869,1.2327 7.43126,-8.09562 7.43126,-8.09562 4.29138,-27.51001 1.0293,-53.94388 -1.76052,-80.74576 l -10.58535,-8.31706 c -13.73456,-7.87601 -29.79939,-15.75202 -44.79874,-23.62801 z"
         style="fill:#151515;fill-opacity:1;stroke:#000000;stroke-opacity:1" />
      <path
         inkscape:export-filename="/home/snieezy/Documents/gr3-bkup/v1.png"
         inkscape:export-ydpi="90"
         inkscape:export-xdpi="90"
         sodipodi:nodetypes="sssssssss"
         inkscape:connector-curvature="0"
         id="path3773"
         d="m 310.11659,128.31172 82.58126,5.14526 c 2.15935,0.13452 3.26818,2.91401 3.29876,5.0119 l 1.26647,86.88021 c 0.0387,2.65528 -0.57373,6.72233 -4.27713,6.41568 -27.97954,-2.31677 -83.93864,-6.95032 -83.93864,-6.95032 -6.55012,-0.54237 -9.87044,-2.03921 -9.89087,-8.28694 l -0.26732,-81.80009 c -0.0268,-8.18789 7.26275,-6.66272 11.22747,-6.4157 z"
         style="fill:#1a1a1a;fill-opacity:1;stroke:#000000;stroke-opacity:1" />
      <path
         inkscape:export-filename="/home/snieezy/Documents/gr3-bkup/v1.png"
         inkscape:export-ydpi="90"
         inkscape:export-xdpi="90"
         sodipodi:nodetypes="cscccsc"
         inkscape:connector-curvature="0"
         id="path3777"
         d="m 300.33707,129.98531 c 0,0 3.43726,-5.82598 5.17728,-7.22835 9.45963,-7.62393 32.13411,-17.20119 32.13411,-17.20119 l 86.37241,6.5803 -28.15297,23.66356 c 0,0 -60.60568,-5.08071 -90.90853,-7.62107 -1.26419,-0.10597 -4.6223,1.80675 -4.6223,1.80675 z"
         style="fill:#2a2a2a;fill-opacity:1;stroke:#000000;stroke-opacity:1" />
      <path
         inkscape:export-filename="/home/snieezy/Documents/gr3-bkup/v1.png"
         inkscape:export-ydpi="90"
         inkscape:export-xdpi="90"
         sodipodi:nodetypes="csssssscc"
         inkscape:connector-curvature="0"
         id="path3775"
         d="m 394.8572,135.52938 c 0.17487,0.102 24.08105,-21.13401 28.6033,-23.25689 2.13104,-1.00038 3.37085,3.79651 3.47516,6.14838 1.36669,30.81349 -0.0468,87.96762 -0.0649,88.13748 -0.0577,0.54208 -1.54093,1.88651 -2.171,2.51662 -8.39343,8.39392 -21.33202,18.69799 -25.56548,22.15516 -1.11286,0.90881 -2.05765,-2.30796 -2.13856,-3.74249 -1.69442,-30.04187 0.16212,-92.13524 -2.13857,-91.95826 z"
         style="fill:#000000;fill-opacity:1;stroke:#000000;stroke-opacity:1" />
      <path
         inkscape:export-filename="/home/snieezy/Documents/gr3-bkup/v1.png"
         inkscape:export-ydpi="90"
         inkscape:export-xdpi="90"
         sodipodi:nodetypes="cssssssc"
         inkscape:connector-curvature="0"
         id="path3783"
         d="m 224.90422,219.97075 -1.8044,84.43845 c -0.10686,5.00264 0.77131,9.64965 13.60974,11.7195 0.74732,0.12054 52.56186,10.19323 68.80479,9.82925 4.66313,-0.1045 8.59627,-6.30015 8.69512,-10.9634 0.54427,-25.6798 -1.41412,-76.46723 -1.33267,-77.65257 0.15771,-2.29507 -5.60524,-3.55796 -13.69754,-4.79997 z"
         style="fill:#1f1f1f;fill-opacity:1;stroke:#000000;stroke-opacity:1" />
      <path
         inkscape:export-filename="/home/snieezy/Documents/gr3-bkup/v1.png"
         inkscape:export-ydpi="90"
         inkscape:export-xdpi="90"
         sodipodi:nodetypes="sssssss"
         inkscape:connector-curvature="0"
         id="path3791"
         d="m 427.81299,332.38478 c 0.22291,3.67515 -0.27565,8.72376 8.12804,8.6951 1.02059,-0.003 67.1994,-15.81098 67.67065,-16.25608 2.06327,-1.94876 5.00438,-3.71418 5.00438,-8.02091 0,-24.01525 -0.1707,-82.74664 -0.0898,-83.46678 0.28339,-2.52149 -80.15743,15.13563 -80.31629,19.62607 -0.93322,26.37964 -0.6053,75.98864 -0.39703,79.4226 z"
         style="fill:#000000;fill-opacity:1;stroke:#000000;stroke-opacity:1" />
      <g
         inkscape:export-filename="/home/snieezy/Documents/gr3-bkup/v1.png"
         inkscape:export-ydpi="90"
         inkscape:export-xdpi="90"
         id="text3876"
         style="font-size:50px;font-style:normal;font-weight:normal;line-height:125%;letter-spacing:0px;word-spacing:0px;fill:#ffffff;fill-opacity:1;stroke:#000000;stroke-width:1;stroke-opacity:1;font-family:Sans"
         transform="matrix(1.4718537,-0.00653593,0.00653593,1.4718537,753.12359,349.54312)">
        <path
           style="stroke:#000000;stroke-opacity:1"
           sodipodi:nodetypes="cccccccccccccccc"
           inkscape:connector-curvature="0"
           id="path3881"
           d="m -325.74399,-68.157923 -12.56461,17.95248 12.56119,2.274083 0.003,-20.226563 m -1.29395,-4.296875 6.19643,1.067006 -0.0704,24.205304 5.19707,0.70377 0.0674,4.267827 -5.19678,-0.771877 0.003,7.995642 -4.90369,-0.794579 -0.002,-8.048093 -16.44125,-3.114267 0,-4.760742 15.15072,-20.749991" />
      </g>
      <path
         inkscape:export-ydpi="90"
         inkscape:export-xdpi="90"
         inkscape:export-filename="/home/snieezy/Documents/gr3-bkup/v1.png"
         sodipodi:nodetypes="ccccc"
         inkscape:connector-curvature="0"
         id="rect4251"
         d="m 425.1654,341.51679 77.67206,-21.02797 13.25825,5.65181 -77.67206,21.02797 z"
         style="fill:url(#linearGradient3389);fill-opacity:1;stroke:none" />
      <g
         transform="translate(1000,814)"
         id="text4008"
         style="font-size:55.95701599px;font-style:normal;font-weight:normal;line-height:125%;letter-spacing:0px;word-spacing:0px;fill:#ffffff;fill-opacity:1;stroke:#000000;stroke-width:1.39892542;stroke-opacity:1;font-family:Sans">
        <path
           sodipodi:nodetypes="cccccccccccccccccccccc"
           inkscape:connector-curvature="0"
           id="path4019"
           style="font-size:69.94626617px;fill:#ffffff;stroke:#000000;stroke-opacity:1"
           d="m -659.87506,-616.4617 24.14069,2.52318 0,5.80608 -32.43998,-2.52318 0,-5.80608 c 2.61843,-2.7095 6.24427,-3.81792 10.75253,-8.37172 4.53101,-4.57654 7.37713,-7.52512 8.53837,-8.84575 2.20856,-2.48179 3.74546,-4.57653 4.61071,-6.28423 0.88796,-1.73041 1.33196,-3.4267 1.33199,-5.08887 -3e-5,-2.70946 -0.95633,-4.91805 -2.86889,-6.62576 -1.88985,-1.70763 -4.36028,-2.56147 -7.4113,-2.56151 -2.16307,4e-5 -4.45135,0.37573 -6.86484,1.12706 -2.71423,0.42795 -6.10265,3.08102 -8.02607,5.41535 l 0,-6.96731 c 2.05643,-2.19768 5.57657,-4.16573 8.12853,-4.52735 2.41349,-0.56918 4.62208,-0.85379 6.62576,-0.85384 5.28238,5e-5 9.49463,1.32065 12.63678,3.9618 3.14208,2.64125 4.71314,6.17043 4.71318,10.58757 -4e-5,2.09478 -0.3985,4.08706 -1.19537,5.97685 -0.77418,1.86709 -2.19724,4.07568 -4.26918,6.62577 -0.56926,0.66033 -2.37939,2.57292 -5.4304,5.73778 -3.04186,3.14346 -6.33684,5.17899 -12.97251,10.69416" />
      </g>
      <g
         transform="translate(1122,921.5)"
         style="font-size:55.95701599px;font-style:normal;font-weight:normal;line-height:125%;letter-spacing:0px;word-spacing:0px;fill:#ffffff;fill-opacity:1;stroke:#000000;stroke-width:1.39892542;stroke-opacity:1;font-family:Sans"
         id="g4025">
        <path
           d="m -661.84327,-613.81599 24.16279,-6.34435 0,5.80608 -32.46208,7.96933 0,-5.80608 c 2.61843,-2.7095 7.1183,-9.54589 11.27463,-14.28039 4.24872,-4.83974 6.81463,-8.21262 7.97587,-9.53325 2.20856,-2.48179 3.74546,-4.57653 4.61071,-6.28423 0.88796,-1.73041 1.33196,-3.4267 1.33199,-5.08887 -3e-5,-2.70946 -0.77072,-4.71455 -2.86889,-6.18826 -1.17036,-0.82204 -5.57997,-0.54899 -7.4113,-0.28212 -2.14046,0.31191 -5.05623,1.40705 -6.80234,2.47433 -2.34449,1.43303 -6.16515,5.14965 -8.08857,7.48398 l 0,-6.96731 c 2.05643,-2.19768 5.82682,-5.56945 8.19103,-6.59598 2.02095,-0.87749 4.56713,-2.02738 6.56326,-2.20111 1.48776,-0.12949 9.49463,-1.39626 12.63678,1.24489 3.14208,2.64125 4.71314,6.17043 4.71318,10.58757 -4e-5,2.09478 -0.3985,4.08706 -1.19537,5.97685 -0.77418,1.86709 -2.19724,4.07568 -4.26918,6.62577 -0.56926,0.66033 -2.37641,2.5758 -5.4304,5.73778 -3.03888,3.14634 -7.33012,9.40112 -12.93211,15.66535"
           style="font-size:69.94626617px;fill:#ffffff;stroke:#000000;stroke-opacity:1"
           id="path4027"
           inkscape:connector-curvature="0"
           sodipodi:nodetypes="cccccscccsssccssccccsc" />
      </g>
    </g>
  </g>
</svg>
