<?xml version="1.0" encoding="UTF-8" standalone="no"?>
<svg width="200px" height="30px" viewBox="0 0 200 30" version="1.1" xmlns="http://www.w3.org/2000/svg" xmlns:xlink="http://www.w3.org/1999/xlink">
    <!-- Generator: Sketch 3.8.3 (29802) - http://www.bohemiancoding.com/sketch -->
    <title>boardandroll</title>
    <desc>Created with Sketch.</desc>
    <defs></defs>
    <g id="Page-1" stroke="none" stroke-width="1" fill="none" fill-rule="evenodd">
        <g id="boardandroll" fill="#000000">
            <path d="M39.9752169,3.29752066 C44.0148699,3.29752066 47.1871128,4.80991736 47.1871128,9.27272727 C47.1871128,11.4297521 46.2453532,13.2892562 44.2627014,14.3057851 C47.1871128,14.8264463 49.2688971,16.4380165 49.2688971,20.231405 C49.2688971,24.0991736 46.4436183,26.7768595 41.5861214,26.7768595 L32.6889715,26.7768595 L32.6889715,3.32231405 L39.9752169,3.32231405 L39.9752169,3.29752066 Z M38.4634449,12.4958678 C40.7682776,12.4958678 42.0074349,11.7768595 42.0074349,9.81818182 C42.0074349,8.1322314 40.7930607,7.43801653 38.4634449,7.43801653 L38.0421314,7.43801653 L38.0421314,12.4958678 L38.4634449,12.4958678 L38.4634449,12.4958678 Z M39.7273854,22.661157 C42.2552664,22.661157 43.6431227,21.892562 43.6431227,20.0330579 C43.6431227,17.8760331 42.2552664,17.107438 39.7273854,17.107438 L38.0421314,17.107438 L38.0421314,22.661157 L39.7273854,22.661157 L39.7273854,22.661157 Z" id="Shape"></path>
            <path d="M59.3804213,11.7520661 C64.2131351,11.7520661 68.0793061,14.9256198 68.0793061,19.4876033 C68.0793061,23.9752066 64.4114002,27.1983471 59.3804213,27.1983471 C54.1263941,27.1983471 50.582404,23.9752066 50.582404,19.4876033 C50.582404,14.9504132 54.448575,11.7520661 59.3804213,11.7520661 L59.3804213,11.7520661 Z M59.330855,22.9090909 C61.2887237,22.9090909 62.7261462,21.4958678 62.7261462,19.4876033 C62.7261462,17.4793388 61.2143742,16.0413223 59.330855,16.0413223 C57.4225527,16.0413223 55.9107807,17.4545455 55.9107807,19.4876033 C55.9355638,21.4710744 57.2986369,22.9090909 59.330855,22.9090909 L59.330855,22.9090909 Z" id="Shape"></path>
            <path d="M76.4807931,11.7520661 C78.4386617,11.7520661 80.0743494,12.3966942 81.2639405,13.5619835 L81.2639405,12.1735537 L86.2949195,12.1735537 L86.2949195,26.7768595 L81.3135068,26.7768595 L81.3135068,25.1157025 L81.2639405,25.1157025 C80.173482,26.3057851 78.488228,27.1983471 76.4807931,27.1983471 C72.2180917,27.1983471 69.2193309,23.7520661 69.2193309,19.4876033 C69.2193309,15.2231405 72.2180917,11.7520661 76.4807931,11.7520661 L76.4807931,11.7520661 Z M77.9925651,22.9090909 C79.9504337,22.9090909 81.3878563,21.4958678 81.3878563,19.4876033 C81.3878563,17.4793388 79.8760843,16.0413223 77.9925651,16.0413223 C76.0842627,16.0413223 74.5724907,17.4545455 74.5724907,19.4876033 C74.5724907,21.4710744 75.960347,22.9090909 77.9925651,22.9090909 L77.9925651,22.9090909 Z" id="Shape"></path>
            <path d="M89.7149938,12.1735537 L94.7459727,12.1735537 L94.7459727,14.2809917 L94.795539,14.2809917 C94.795539,14.2809917 96.3816605,11.7520661 99.2565056,11.7520661 C101.140025,11.7520661 102.428748,12.6694215 102.428748,12.6694215 L100.322181,16.9338843 C100.322181,16.9338843 99.3804213,16.1404959 97.6951673,16.1404959 C95.0681537,16.1404959 94.7211896,18.7190083 94.7211896,19.0909091 L94.7211896,26.7768595 L89.7149938,26.7768595 L89.7149938,12.1735537 L89.7149938,12.1735537 Z" id="Shape"></path>
            <path d="M110.061958,11.7520661 C112.019827,11.7520661 113.655514,12.3966942 114.845105,13.5619835 L114.845105,2.30578512 L119.876084,2.30578512 L119.876084,26.7768595 L114.894672,26.7768595 L114.894672,25.1157025 L114.845105,25.1157025 C113.754647,26.3057851 112.069393,27.1983471 110.061958,27.1983471 C105.799257,27.1983471 102.800496,23.7520661 102.800496,19.4876033 C102.800496,15.2231405 105.799257,11.7520661 110.061958,11.7520661 L110.061958,11.7520661 Z M111.57373,22.9090909 C113.531599,22.9090909 114.969021,21.4958678 114.969021,19.4876033 C114.969021,17.4793388 113.457249,16.0413223 111.57373,16.0413223 C109.665428,16.0413223 108.153656,17.4545455 108.153656,19.4876033 C108.178439,21.4710744 109.541512,22.9090909 111.57373,22.9090909 L111.57373,22.9090909 Z" id="Shape"></path>
            <path d="M128.128872,14.2066116 C126.765799,12.4958678 125.774473,10.8595041 125.774473,9 C125.774473,5.3553719 128.401487,2.87603306 133.258984,2.87603306 C137.942999,2.87603306 140.223048,6.04958678 140.223048,9 C140.223048,12.5206612 135.5886,14.7768595 135.5886,14.7768595 L138.711276,18.0247934 C138.711276,18.0247934 139.727385,17.5785124 142.156134,15.0743802 L145.452292,18.322314 C145.452292,18.322314 143.866171,20.1322314 142.131351,21.5454545 L147.187113,26.8016529 L140.446097,26.8016529 L138.116481,24.3719008 C136.05948,25.8347107 134.200743,27.2231405 130.582404,27.2231405 C127.112763,27.2231405 122.428748,25.8347107 122.428748,20.6280992 C122.403965,17.677686 125.377943,15.6446281 128.128872,14.2066116 L128.128872,14.2066116 Z M130.904585,17.1322314 C130.904585,17.1322314 128.451053,18.0247934 128.451053,20.1818182 C128.451053,21.5454545 129.83891,22.1404959 131.10285,22.1404959 C133.035936,22.1404959 134.622057,20.8016529 134.622057,20.8016529 L130.904585,17.1322314 L130.904585,17.1322314 Z M131.201983,9 C131.201983,10.3636364 132.91202,11.8760331 132.91202,11.8760331 C134.101611,11.231405 135.539033,10.2644628 135.539033,9 C135.539033,7.73553719 134.993804,6.66942149 133.258984,6.66942149 C131.796778,6.66942149 131.201983,7.73553719 131.201983,9 L131.201983,9 Z" id="Shape"></path>
            <path d="M156.45601,3.29752066 C160.817844,3.29752066 164.114002,5.65289256 164.114002,10.2644628 C164.114002,13.785124 162.180917,16.1404959 159.306072,17.0578512 L167.385378,26.7520661 L160.594796,26.7520661 L153.407683,17.5041322 L153.407683,26.7768595 L148.054523,26.7768595 L148.054523,3.32231405 L156.45601,3.32231405 L156.45601,3.29752066 Z M154.027261,13.7107438 C156.034696,13.7107438 158.463445,13.5619835 158.463445,10.6363636 C158.463445,7.7107438 156.034696,7.56198347 154.027261,7.56198347 L153.407683,7.56198347 L153.407683,13.7107438 L154.027261,13.7107438 L154.027261,13.7107438 Z" id="Shape"></path>
            <path d="M175.464684,11.7520661 C180.297398,11.7520661 184.163569,14.9256198 184.163569,19.4876033 C184.163569,23.9752066 180.495663,27.1983471 175.464684,27.1983471 C170.210657,27.1983471 166.666667,23.9752066 166.666667,19.4876033 C166.69145,14.9504132 170.557621,11.7520661 175.464684,11.7520661 L175.464684,11.7520661 Z M175.439901,22.9090909 C177.39777,22.9090909 178.835192,21.4958678 178.835192,19.4876033 C178.835192,17.4793388 177.32342,16.0413223 175.439901,16.0413223 C173.531599,16.0413223 172.019827,17.4545455 172.019827,19.4876033 C172.019827,21.4710744 173.3829,22.9090909 175.439901,22.9090909 L175.439901,22.9090909 Z" id="Shape"></path>
            <polygon id="Shape" points="186.468401 2.30578512 191.49938 2.30578512 191.49938 26.7768595 186.468401 26.7768595"></polygon>
            <polygon id="Shape" points="194.919455 2.30578512 199.950434 2.30578512 199.950434 26.7768595 194.919455 26.7768595"></polygon>
            <path d="M29.5167286,16.5371901 L21.016109,1.80991736 C20.1239157,0.247933884 18.1412639,-0.272727273 16.5799257,0.619834711 L1.85873606,9.12396694 C0.29739777,10.0165289 -0.223048327,12 0.669144981,13.5619835 L9.19454771,28.2644628 C10.086741,29.8264463 12.0693928,30.3471074 13.6307311,29.4545455 L28.3519207,20.9504132 C29.8884758,20.0578512 30.4089219,18.0743802 29.5167286,16.5371901 L29.5167286,16.5371901 Z M7.11276332,14.2809917 C6.17100372,14.8264463 4.98141264,14.5041322 4.4361834,13.5619835 C3.89095415,12.6198347 4.21313507,11.4297521 5.15489467,10.8842975 C6.09665428,10.338843 7.28624535,10.661157 7.8314746,11.6033058 C8.37670384,12.5454545 8.05452292,13.7355372 7.11276332,14.2809917 L7.11276332,14.2809917 Z M10.4089219,20.0082645 C9.46716233,20.553719 8.27757125,20.231405 7.73234201,19.2892562 C7.18711276,18.3471074 7.50929368,17.1570248 8.45105328,16.6115702 C9.39281289,16.0661157 10.582404,16.3884298 11.1276332,17.3305785 C11.6728625,18.2727273 11.3506815,19.4628099 10.4089219,20.0082645 L10.4089219,20.0082645 Z M13.7298637,25.7355372 C12.7881041,26.2809917 11.598513,25.9586777 11.0532838,25.0165289 C10.5080545,24.0743802 10.8302354,22.8842975 11.771995,22.338843 C12.7137546,21.7933884 13.9033457,22.1157025 14.448575,23.0578512 C14.9690211,24 14.6716233,25.1900826 13.7298637,25.7355372 L13.7298637,25.7355372 Z M18.5873606,7.66115702 C17.645601,8.20661157 16.4560099,7.88429752 15.9107807,6.94214876 C15.3655514,6 15.6877323,4.80991736 16.6294919,4.26446281 C17.5712515,3.71900826 18.7608426,4.04132231 19.3060719,4.98347107 C19.826518,5.92561983 19.5043371,7.11570248 18.5873606,7.66115702 L18.5873606,7.66115702 Z M21.8835192,13.3884298 C20.9417596,13.9338843 19.7521685,13.6115702 19.2069393,12.6694215 C18.66171,11.7272727 18.983891,10.5371901 19.9256506,9.99173554 C20.8674102,9.44628099 22.0570012,9.76859504 22.6022305,10.7107438 C23.1474597,11.6528926 22.8252788,12.8429752 21.8835192,13.3884298 L21.8835192,13.3884298 Z M25.1796778,19.1157025 C24.2379182,19.661157 23.0483271,19.338843 22.5030979,18.3966942 C21.9578686,17.4545455 22.2800496,16.2644628 23.2218092,15.7190083 C24.1635688,15.1735537 25.3531599,15.4958678 25.8983891,16.4380165 C26.4436183,17.3801653 26.1214374,18.5702479 25.1796778,19.1157025 L25.1796778,19.1157025 Z" id="Shape"></path>
        </g>
    </g>
</svg>