<?xml version="1.0" encoding="UTF-8" standalone="no"?>
<svg
   xmlns:dc="http://purl.org/dc/elements/1.1/"
   xmlns:cc="http://creativecommons.org/ns#"
   xmlns:rdf="http://www.w3.org/1999/02/22-rdf-syntax-ns#"
   xmlns:svg="http://www.w3.org/2000/svg"
   xmlns="http://www.w3.org/2000/svg"
   xmlns:sodipodi="http://sodipodi.sourceforge.net/DTD/sodipodi-0.dtd"
   xmlns:inkscape="http://www.inkscape.org/namespaces/inkscape"
   width="220"
   height="32.732605"
   viewBox="0 0 220 32.732605"
   version="1.1"
   id="svg4196"
   inkscape:version="0.48.4 r9939"
   sodipodi:docname="board-and-roll-logo.svg">
  <metadata
     id="metadata4229">
    <rdf:RDF>
      <cc:Work
         rdf:about="">
        <dc:format>image/svg+xml</dc:format>
        <dc:type
           rdf:resource="http://purl.org/dc/dcmitype/StillImage" />
      </cc:Work>
    </rdf:RDF>
  </metadata>
  <sodipodi:namedview
     pagecolor="#ffffff"
     bordercolor="#666666"
     borderopacity="1"
     objecttolerance="10"
     gridtolerance="10"
     guidetolerance="10"
     inkscape:pageopacity="0"
     inkscape:pageshadow="2"
     inkscape:window-width="1615"
     inkscape:window-height="1026"
     id="namedview4227"
     showgrid="false"
     inkscape:zoom="4"
     inkscape:cx="124.97968"
     inkscape:cy="9.6909467"
     inkscape:window-x="65"
     inkscape:window-y="24"
     inkscape:window-maximized="1"
     inkscape:current-layer="boardandroll"
     fit-margin-top="0"
     fit-margin-left="0"
     fit-margin-right="0"
     fit-margin-bottom="0" />
  <!-- Generator: Sketch 3.8.3 (29802) - http://www.bohemiancoding.com/sketch -->
  <title
     id="title4198">boardandroll</title>
  <desc
     id="desc4200">Created with Sketch.</desc>
  <defs
     id="defs4202" />
  <g
     id="Page-1"
     style="fill:none;stroke:none"
     transform="translate(-0.22059465,2.8357717)">
    <g
       id="boardandroll"
       style="fill:#000000">
      <rect
         style="fill:#dadab9;fill-opacity:1;stroke:none"
         id="rect4756"
         width="23.402338"
         height="20.498409"
         x="-3.9487879"
         y="9.543375"
         rx="1.3172431"
         ry="1.6475898"
         transform="matrix(0.86181941,-0.50721524,0.48738825,0.87318537,0,0)" />
      <path
         d="m 44.00983,0.59801237 c 4.449629,0 7.943816,1.66588663 7.943816,6.58161773 0,2.3759367 -1.037337,4.4241579 -3.221204,5.5438519 3.221204,0.573502 5.514264,2.348627 5.514264,6.526999 0,4.2603 -3.11201,7.209739 -8.462484,7.209739 l -9.800103,0 0,-25.83489801 8.025711,0 0,-0.0273096 z M 42.344631,10.72988 c 2.538746,0 3.903662,-0.7919786 3.903662,-2.9494383 0,-1.857054 -1.337618,-2.6217233 -3.903662,-2.6217233 l -0.464072,0 0,5.5711616 0.464072,0 0,0 z m 1.392215,11.196943 c 2.784431,0 4.313138,-0.846598 4.313138,-2.894819 0,-2.375937 -1.528707,-3.222535 -4.313138,-3.222535 l -1.856287,0 0,6.117354 1.856287,0 0,0 z"
         id="Shape"
         inkscape:connector-curvature="0" />
      <path
         d="m 65.384427,9.9105918 c 5.323176,0 9.581717,3.4956312 9.581717,8.5206002 0,4.943041 -4.040154,8.493291 -9.581717,8.493291 -5.787247,0 -9.690909,-3.55025 -9.690909,-8.493291 0,-4.99766 4.25854,-8.5206002 9.690909,-8.5206002 l 0,0 z m -0.0546,12.2893282 c 2.156568,0 3.739872,-1.556649 3.739872,-3.768728 0,-2.212079 -1.665199,-3.796036 -3.739872,-3.796036 -2.101972,0 -3.767171,1.556648 -3.767171,3.796036 0.0273,2.18477 1.528707,3.768728 3.767171,3.768728 l 0,0 z"
         id="path4207"
         inkscape:connector-curvature="0" />
      <path
         d="m 84.22028,9.9105918 c 2.156569,0 3.958259,0.7100502 5.268579,1.9936022 l 0,-1.529339 5.541562,0 0,16.085365 -5.486965,0 0,-1.829744 -0.0546,0 c -1.201127,1.310861 -3.057414,2.294007 -5.268579,2.294007 -4.695314,0 -7.998413,-3.796036 -7.998413,-8.493291 0,-4.697254 3.303099,-8.5206002 7.998413,-8.5206002 l 0,0 z M 85.885479,22.19992 c 2.156568,0 3.739872,-1.556649 3.739872,-3.768728 0,-2.212079 -1.665199,-3.796036 -3.739872,-3.796036 -2.101972,0 -3.767171,1.556648 -3.767171,3.796036 0,2.18477 1.528707,3.768728 3.767171,3.768728 l 0,0 z"
         id="path4209"
         inkscape:connector-curvature="0" />
      <path
         d="m 98.797592,10.374855 5.541558,0 0,2.321318 0.0546,0 c 0,0 1.74709,-2.7855812 4.9137,-2.7855812 2.07468,0 3.49419,1.0104562 3.49419,1.0104562 l -2.32036,4.697254 c 0,0 -1.03734,-0.873908 -2.89362,-0.873908 -2.89363,0 -3.2758,2.8402 -3.2758,3.249845 l 0,8.465981 -5.514268,0 0,-16.085365 0,0 z"
         id="path4211"
         inkscape:connector-curvature="0" />
      <path
         d="m 121.20953,9.9105918 c 2.15657,0 3.95826,0.7100502 5.26858,1.9936022 l 0,-12.39856632 5.54156,0 0,26.95459232 -5.48697,0 0,-1.829744 -0.0546,0 c -1.20113,1.310861 -3.05742,2.294007 -5.26858,2.294007 -4.69532,0 -7.99842,-3.796036 -7.99842,-8.493291 0,-4.697254 3.3031,-8.5206002 7.99842,-8.5206002 l 0,0 z m 1.6652,12.2893282 c 2.15656,0 3.73987,-1.556649 3.73987,-3.768728 0,-2.212079 -1.6652,-3.796036 -3.73987,-3.796036 -2.10198,0 -3.76717,1.556648 -3.76717,3.796036 0.0273,2.18477 1.5287,3.768728 3.76717,3.768728 l 0,0 z"
         id="path4213"
         inkscape:connector-curvature="0" />
      <path
         d="m 141.11001,12.614244 c -1.5014,-1.884364 -2.59334,-3.6867984 -2.59334,-5.7350197 0,-4.0145137 2.89363,-6.74547542 8.2441,-6.74547542 5.15939,0 7.67083,3.49563102 7.67083,6.74547542 0,3.8779657 -5.10479,6.3631407 -5.10479,6.3631407 l 3.43959,3.57756 c 0,0 1.11924,-0.491573 3.79447,-3.249844 l 3.63068,3.577559 c 0,0 -1.74709,1.993602 -3.65798,3.550251 l 5.56887,5.789638 -7.42515,0 -2.56605,-2.676342 c -2.26576,1.611267 -4.31313,3.140606 -8.29869,3.140606 -3.82177,0 -8.98115,-1.529339 -8.98115,-7.264358 -0.0273,-3.249845 3.2485,-5.489233 6.27861,-7.073191 l 0,0 z m 3.05742,3.222535 c 0,0 -2.70254,0.983146 -2.70254,3.359083 0,1.502029 1.52871,2.157459 2.92092,2.157459 2.12928,0 3.87637,-1.474719 3.87637,-1.474719 l -4.09475,-4.041823 0,0 z m 0.32758,-8.9575547 c 0,1.502029 1.88358,3.1679157 1.88358,3.1679157 1.31032,-0.7100501 2.89363,-1.7751252 2.89363,-3.1679157 0,-1.3927905 -0.60057,-2.567104 -2.51145,-2.567104 -1.6106,0 -2.26576,1.1743135 -2.26576,2.567104 l 0,0 z"
         id="path4215"
         style="fill:#aa2525;fill-opacity:1"
         inkscape:connector-curvature="0" />
      <path
         d="m 172.31201,0.59801237 c 4.80451,0 8.43519,2.59441363 8.43519,7.67400243 0,3.8779652 -2.12927,6.4723792 -5.29588,7.4828352 l 8.89926,10.67806 -7.47974,0 -7.91652,-10.186487 0,10.213797 -5.89644,0 0,-25.83489801 9.25413,0 0,-0.0273096 z M 169.63678,12.068052 c 2.21116,0 4.8864,-0.163858 4.8864,-3.386393 0,-3.2225348 -2.67524,-3.3863925 -4.8864,-3.3863925 l -0.68246,0 0,6.7727855 0.68246,0 0,0 z"
         id="path4217"
         inkscape:connector-curvature="0" />
      <path
         d="m 193.24984,9.9105918 c 5.32317,0 9.58171,3.4956312 9.58171,8.5206002 0,4.943041 -4.04015,8.493291 -9.58171,8.493291 -5.78725,0 -9.69091,-3.55025 -9.69091,-8.493291 0.0273,-4.99766 4.28584,-8.5206002 9.69091,-8.5206002 l 0,0 z m -0.0273,12.2893282 c 2.15657,0 3.73987,-1.556649 3.73987,-3.768728 0,-2.212079 -1.6652,-3.796036 -3.73987,-3.796036 -2.10197,0 -3.76717,1.556648 -3.76717,3.796036 0,2.18477 1.50141,3.768728 3.76717,3.768728 l 0,0 z"
         id="path4219"
         inkscape:connector-curvature="0" />
      <polygon
         id="polygon4221"
         points="186.4684,2.3057851 191.49938,2.3057851 191.49938,26.77686 186.4684,26.77686 "
         transform="matrix(1.1014879,0,0,1.1014879,-0.02238769,-3.0341667)" />
      <polygon
         id="polygon4223"
         points="194.91945,2.3057851 199.95043,2.3057851 199.95043,26.77686 194.91945,26.77686 "
         transform="matrix(1.1014879,0,0,1.1014879,-0.02238769,-3.0341667)" />
      <path
         style="fill:#aa2525;fill-opacity:1"
         d="m 20.286295,-2.8276377 c -0.68763,-0.047525 -1.385945,0.1132211 -2.030868,0.4819009 L 2.0084806,7.0169103 C 0.28868539,8.0000565 -0.28227639,10.184256 0.70046374,11.904763 L 10.097532,28.082866 c 0.98274,1.720507 3.168058,2.325585 4.887853,1.342439 L 31.19791,20.028236 c 1.692497,-0.983146 2.290756,-3.160235 1.308017,-4.853431 L 23.14328,-1.0377199 C 22.529067,-2.1130361 21.432346,-2.7484292 20.286295,-2.8276377 z M 19.115964,1.3717849 C 19.95027,1.2668135 20.799675,1.6605271 21.250097,2.4388513 21.823362,3.4766168 21.468442,4.7982884 20.458403,5.3991 19.421066,5.9999115 18.098717,5.645171 17.498154,4.6074055 16.897591,3.56964 17.252511,2.2479684 18.289849,1.6471568 18.549183,1.496954 18.837863,1.4067753 19.115964,1.3717849 z m 4.027316,6.2991338 c 0.689922,0.048539 1.345723,0.4528845 1.721074,1.1014879 0.600564,1.0377658 0.245643,2.3250154 -0.791694,2.9258274 -1.037337,0.600811 -2.325264,0.246071 -2.925827,-0.791695 C 20.54627,9.8687737 20.90119,8.5815243 21.938527,7.9807122 22.327529,7.7554078 22.729326,7.6417956 23.14328,7.6709187 z M 6.4832752,8.6691422 C 7.3175806,8.5641704 8.1669855,8.957884 8.617408,9.7362085 9.2179713,10.773974 8.8630504,12.095646 7.8257136,12.696457 6.7883768,13.297269 5.4660282,12.942529 4.8654648,11.904763 4.2649014,10.866997 4.6198225,9.5453262 5.6571593,8.9445141 5.9164935,8.7943108 6.2051734,8.7041331 6.4832752,8.6691422 z M 26.3789,14.004474 c 0.834306,-0.104972 1.68371,0.288742 2.134133,1.067067 0.600563,1.037765 0.245643,2.359436 -0.791694,2.960248 -1.037338,0.600811 -2.359686,0.246072 -2.960249,-0.791694 -0.600563,-1.037766 -0.245643,-2.359438 0.791694,-2.960249 0.259335,-0.150203 0.548015,-0.240381 0.826116,-0.275372 z m -15.86831,0.963802 c 0.689923,0.04854 1.345723,0.452885 1.721075,1.101488 0.600563,1.037766 0.245643,2.325015 -0.791694,2.925827 C 10.402634,19.596403 9.0802854,19.241662 8.479722,18.203897 7.8791585,17.166131 8.2340796,15.878882 9.2714164,15.27807 9.6604178,15.052766 10.096637,14.939153 10.51059,14.968276 z m 3.235621,6.333555 c 0.834305,-0.104971 1.68371,0.288742 2.134133,1.067067 0.573265,1.037766 0.245643,2.359436 -0.791695,2.960249 -1.037337,0.600812 -2.325264,0.246071 -2.925827,-0.791695 -0.600563,-1.037766 -0.245643,-2.359438 0.791695,-2.960249 0.259334,-0.150203 0.513593,-0.240381 0.791694,-0.275372 z"
         id="path4225"
         inkscape:connector-curvature="0" />
    </g>
  </g>
</svg>
